<svg width="33" height="33" viewBox="0 0 33 33" fill="none" xmlns="http://www.w3.org/2000/svg">
<rect x="0.133301" y="0.34317" width="32" height="32" rx="4" fill="black" fill-opacity="0.7"/>
<path d="M16.1339 24.3519C15.9753 24.3511 15.8191 24.3127 15.6782 24.2396C15.5374 24.1666 15.4159 24.0611 15.3239 23.9319C14.1116 22.441 12.6375 21.1837 10.9739 20.2219C8.59391 18.6519 6.13391 17.0319 6.13391 13.8519C6.12292 13.1235 6.25994 12.4005 6.53669 11.7267C6.81344 11.0528 7.22415 10.4422 7.74391 9.93187C8.33307 9.3887 9.02506 8.96905 9.77905 8.69768C10.533 8.42632 11.3337 8.30873 12.1339 8.35187C12.9025 8.36711 13.6595 8.54212 14.3567 8.86578C15.054 9.18945 15.6762 9.65467 16.1839 10.2319C17.2008 9.10837 18.6207 8.43257 20.1339 8.35187C23.0339 8.35187 26.1339 10.5619 26.1339 13.8519C26.1339 17.1419 23.6739 18.6519 21.2939 20.2219C19.6304 21.1837 18.1562 22.441 16.9439 23.9319C16.8519 24.0611 16.7305 24.1666 16.5896 24.2396C16.4488 24.3127 16.2926 24.3511 16.1339 24.3519ZM11.9139 10.3519C10.8936 10.3182 9.89902 10.676 9.13391 11.3519C8.80434 11.6775 8.54544 12.0675 8.37338 12.4977C8.20133 12.9278 8.11981 13.3888 8.13391 13.8519C8.13391 15.8519 9.63391 16.9419 12.0739 18.5519C13.5553 19.453 14.9191 20.5346 16.1339 21.7719C17.3487 20.5346 18.7125 19.453 20.1939 18.5519C22.6339 16.9419 24.1339 15.8519 24.1339 13.8519C24.1339 11.5719 21.8139 10.3519 20.1339 10.3519C18.6939 10.3519 17.3539 11.8419 16.9639 12.4119C16.8641 12.561 16.7261 12.6805 16.5642 12.758C16.4023 12.8354 16.2226 12.8678 16.0439 12.8519C15.8682 12.8361 15.6998 12.7742 15.5558 12.6723C15.4118 12.5704 15.2973 12.4323 15.2239 12.2719C14.9217 11.7096 14.4774 11.2364 13.9352 10.8995C13.393 10.5626 12.7719 10.3738 12.1339 10.3519H11.9139Z" fill="white"/>
</svg>
