<svg width="33" height="33" viewBox="0 0 33 33" fill="none" xmlns="http://www.w3.org/2000/svg">
<rect x="0.133301" y="0.34317" width="32" height="32" rx="4" fill="black" fill-opacity="0.7"/>
<path d="M16.1333 26.3432C10.6103 26.3432 6.1333 21.8662 6.1333 16.3432C6.1333 10.8202 10.6103 6.34317 16.1333 6.34317C21.6563 6.34317 26.1333 10.8202 26.1333 16.3432C26.1333 21.8662 21.6563 26.3432 16.1333 26.3432ZM16.1333 24.8432C17.2495 24.8432 18.3548 24.6233 19.3861 24.1961C20.4174 23.769 21.3544 23.1429 22.1437 22.3536C22.933 21.5643 23.5591 20.6272 23.9863 19.596C24.4134 18.5647 24.6333 17.4594 24.6333 16.3432C24.6333 15.2269 24.4134 14.1216 23.9863 13.0904C23.5591 12.0591 22.933 11.1221 22.1437 10.3328C21.3544 9.54346 20.4174 8.91736 19.3861 8.49019C18.3548 8.06303 17.2495 7.84317 16.1333 7.84317C13.879 7.84317 11.717 8.7387 10.1229 10.3328C8.52883 11.9268 7.6333 14.0888 7.6333 16.3432C7.6333 18.5975 8.52883 20.7595 10.1229 22.3536C11.717 23.9476 13.879 24.8432 16.1333 24.8432ZM16.8833 11.3432V16.0332L19.9583 19.1082C20.032 19.1768 20.0911 19.2596 20.1321 19.3516C20.1731 19.4436 20.1951 19.5429 20.1969 19.6436C20.1987 19.7444 20.1801 19.8444 20.1424 19.9378C20.1047 20.0312 20.0486 20.116 19.9773 20.1872C19.9061 20.2584 19.8213 20.3146 19.7279 20.3523C19.6345 20.39 19.5345 20.4085 19.4338 20.4068C19.3331 20.405 19.2338 20.3829 19.1418 20.342C19.0498 20.301 18.967 20.2419 18.8983 20.1682L15.3833 16.6542V11.3432C15.3833 11.1443 15.4623 10.9535 15.603 10.8128C15.7436 10.6722 15.9344 10.5932 16.1333 10.5932C16.3322 10.5932 16.523 10.6722 16.6636 10.8128C16.8043 10.9535 16.8833 11.1443 16.8833 11.3432Z" fill="white"/>
</svg>
